<svg width="16" height="29" viewBox="0 0 16 29" fill="none" xmlns="http://www.w3.org/2000/svg">
<path d="M13.4361 18.676V3.95C13.4361 1.77195 11.6641 0 9.48605 0C7.30799 0 5.53605 1.77195 5.53605 3.95V18.676C1.50119 22.3044 4.08961 29 9.48605 29C14.8932 29 17.4648 22.299 13.4361 18.676ZM7.65803 3.95C7.65797 2.94203 8.47802 2.12193 9.48599 2.12193C10.494 2.12193 11.3141 2.94197 11.3141 3.95V12.9688H7.65803V3.95ZM9.48605 26.8781C5.83879 26.8781 4.29867 22.2018 7.22881 20.0301C7.49881 19.8299 7.65803 19.5137 7.65803 19.1777V15.0909H11.3141V19.1777C11.3141 19.5137 11.4733 19.8299 11.7433 20.0301C14.6717 22.2006 13.137 26.8781 9.48605 26.8781Z" fill="black"/>
<path d="M2.84427 13.439H1.06099C0.475045 13.439 0 13.914 0 14.5C0 15.0859 0.475045 15.5609 1.06099 15.5609H2.84427C3.43021 15.5609 3.90526 15.0859 3.90526 14.5C3.90526 13.914 3.43021 13.439 2.84427 13.439Z" fill="black"/>
<path d="M2.84427 9.94434H1.06099C0.475045 9.94434 0 10.4194 0 11.0053C0 11.5913 0.475045 12.0663 1.06099 12.0663H2.84427C3.43021 12.0663 3.90526 11.5913 3.90526 11.0053C3.90526 10.4194 3.43021 9.94434 2.84427 9.94434Z" fill="black"/>
<path d="M2.84427 6.44922H1.06099C0.475045 6.44922 0 6.92426 0 7.51021C0 8.09616 0.475045 8.5712 1.06099 8.5712H2.84427C3.43021 8.5712 3.90526 8.09616 3.90526 7.51021C3.90526 6.92426 3.43021 6.44922 2.84427 6.44922Z" fill="black"/>
</svg>
