<svg width="42" height="43" viewBox="0 0 42 43" fill="none" xmlns="http://www.w3.org/2000/svg">
<path fill-rule="evenodd" clip-rule="evenodd" d="M19.5001 0.492188V4.99221H22.5001V0.492188H19.5001ZM27.9187 29.3908C30.114 27.4663 31.5001 24.6411 31.5001 21.4923C31.5001 15.6933 26.7991 10.9922 21.0001 10.9922C15.2011 10.9922 10.5 15.6933 10.5 21.4923C10.5 21.705 10.5064 21.9162 10.5188 22.1258C9.4917 22.4868 8.53277 22.9926 7.66655 23.6187C7.55695 22.926 7.50003 22.2158 7.50003 21.4923C7.50003 14.0364 13.5442 7.99222 21.0001 7.99222C28.456 7.99222 34.5001 14.0364 34.5001 21.4923C34.5001 25.1951 33.0094 28.5497 30.5953 30.9887C29.8331 30.2827 28.9238 29.733 27.9187 29.3908ZM37.5001 19.9923H42.0002V22.9923H37.5001V19.9923ZM38.4366 9.69318L34.5395 11.9432L36.0395 14.5413L39.9366 12.2913L38.4366 9.69318ZM27.9512 6.45292L30.2012 2.55579L32.7993 4.0558L30.5492 7.95293L27.9512 6.45292ZM9.201 4.0558L11.451 7.95293L14.0491 6.45292L11.7991 2.55579L9.201 4.0558ZM5.96064 14.5413L2.06352 12.2913L3.56352 9.69318L7.46065 11.9432L5.96064 14.5413ZM4.50002 19.9923H0V22.9923H4.50002V19.9923ZM38.4367 33.2914L34.5396 31.0413L36.0396 28.4433L39.9367 30.6933L38.4367 33.2914Z" fill="url(#paint0_linear_63_3684)"/>
<path fill-rule="evenodd" clip-rule="evenodd" d="M14.2501 39.4918C14.2918 39.4918 14.3335 39.4915 14.3751 39.4909H25.3999C25.4191 39.4913 25.4383 39.4916 25.4576 39.4918H25.5002C25.5001 39.4918 25.5002 39.4918 25.5002 39.4918C27.9854 39.4918 30.0002 37.4772 30.0002 34.9919C30.0002 32.5066 27.9855 30.4919 25.5002 30.4919C24.3461 30.4919 23.2935 30.9264 22.4969 31.6406C22.5032 31.5086 22.5064 31.3757 22.5064 31.2421C22.5064 30.2292 22.3239 29.2589 21.9899 28.3624C23.0372 27.8067 24.2319 27.4919 25.5002 27.4919C29.6423 27.4919 33.0002 30.8498 33.0002 34.9919C33.0002 39.1341 29.6423 42.492 25.5002 42.492C25.4818 42.492 25.4635 42.4919 25.4452 42.4918L14.3082 42.4918C14.2889 42.4919 14.2695 42.4918 14.2501 42.4918C8.03688 42.4918 3.00006 37.455 3.00006 31.2418C3.00006 25.0285 8.03688 19.9917 14.2501 19.9917C19.1583 19.9917 23.3323 23.1348 24.8693 27.518C23.8337 27.6042 22.8579 27.9009 21.9848 28.365C20.8172 25.2271 17.7947 22.9917 14.2501 22.9917C9.69374 22.9917 6.00007 26.6854 6.00007 31.2418C6.00007 35.7981 9.69374 39.4918 14.2501 39.4918Z" fill="url(#paint1_linear_63_3684)"/>
<defs>
<linearGradient id="paint0_linear_63_3684" x1="21.0001" y1="0.492187" x2="21.0001" y2="33.2914" gradientUnits="userSpaceOnUse">
<stop stop-color="#EFC977"/>
<stop offset="1" stop-color="#E07256"/>
</linearGradient>
<linearGradient id="paint1_linear_63_3684" x1="18.0001" y1="19.9917" x2="18.0001" y2="42.492" gradientUnits="userSpaceOnUse">
<stop stop-color="#B2D4F7"/>
<stop offset="1" stop-color="#D9E2F3"/>
</linearGradient>
</defs>
</svg>
