<svg width="32" height="32" viewBox="0 0 32 32" fill="none" xmlns="http://www.w3.org/2000/svg">
<path d="M29.3333 11.3598V5.3065C29.3333 3.4265 28.48 2.6665 26.36 2.6665H20.9733C18.8533 2.6665 18 3.4265 18 5.3065V11.3465C18 13.2398 18.8533 13.9865 20.9733 13.9865H26.36C28.48 13.9998 29.3333 13.2398 29.3333 11.3598Z" stroke="black" stroke-width="1.5" stroke-linecap="round" stroke-linejoin="round"/>
<path d="M29.3333 26.36V20.9733C29.3333 18.8533 28.48 18 26.36 18H20.9733C18.8533 18 18 18.8533 18 20.9733V26.36C18 28.48 18.8533 29.3333 20.9733 29.3333H26.36C28.48 29.3333 29.3333 28.48 29.3333 26.36Z" stroke="black" stroke-width="1.5" stroke-linecap="round" stroke-linejoin="round"/>
<path d="M14 11.3598V5.3065C14 3.4265 13.1466 2.6665 11.0266 2.6665H5.63996C3.51996 2.6665 2.66663 3.4265 2.66663 5.3065V11.3465C2.66663 13.2398 3.51996 13.9865 5.63996 13.9865H11.0266C13.1466 13.9998 14 13.2398 14 11.3598Z" stroke="black" stroke-width="1.5" stroke-linecap="round" stroke-linejoin="round"/>
<path d="M14 26.36V20.9733C14 18.8533 13.1466 18 11.0266 18H5.63996C3.51996 18 2.66663 18.8533 2.66663 20.9733V26.36C2.66663 28.48 3.51996 29.3333 5.63996 29.3333H11.0266C13.1466 29.3333 14 28.48 14 26.36Z" stroke="black" stroke-width="1.5" stroke-linecap="round" stroke-linejoin="round"/>
</svg>
