<svg width="35" height="35" viewBox="0 0 35 35" fill="none" xmlns="http://www.w3.org/2000/svg">
<path d="M33.9999 23.5C33.9999 29.305 29.3049 34 23.4999 34L25.0749 31.375" stroke="black" stroke-opacity="0.7" stroke-linecap="round" stroke-linejoin="round"/>
<path d="M1 11.5C1 5.695 5.695 1 11.5 1L9.925 3.625" stroke="black" stroke-opacity="0.7" stroke-linecap="round" stroke-linejoin="round"/>
<path d="M21.7751 22.5398C21.7751 27.6548 17.6351 31.7946 12.5201 31.7946C7.40507 31.7946 3.26508 27.6548 3.26508 22.5398C3.26508 17.4248 7.40507 13.2847 12.5201 13.2847C12.7601 13.2847 12.9851 13.2997 13.2401 13.3147C17.7851 13.6597 21.4151 17.2897 21.7601 21.8346C21.7601 22.0596 21.7751 22.2848 21.7751 22.5398Z" stroke="black" stroke-opacity="0.7" stroke-miterlimit="10" stroke-linecap="round" stroke-linejoin="round"/>
<path d="M31.75 12.5499C31.75 17.6649 27.61 21.8049 22.495 21.8049H21.76C21.415 17.2599 17.785 13.6299 13.24 13.2849V12.5499C13.24 7.43489 17.38 3.29492 22.495 3.29492C27.61 3.29492 31.75 7.43489 31.75 12.5499Z" stroke="black" stroke-opacity="0.7" stroke-miterlimit="10" stroke-linecap="round" stroke-linejoin="round"/>
<path d="M14.6795 23.8758C14.6795 24.331 14.501 24.7602 14.177 25.0837C13.8535 25.4077 13.4244 25.5862 12.9691 25.5862H12.894V26.2492C12.894 26.3712 12.795 26.4702 12.673 26.4702C12.551 26.4702 12.452 26.3712 12.452 26.2492V25.5862H12.4122C11.5402 25.5862 10.8097 24.9321 10.712 24.0641C10.6983 23.943 10.7858 23.8339 10.9069 23.8197C11.0262 23.8078 11.1376 23.8935 11.1513 24.0146C11.2238 24.6585 11.7657 25.1443 12.4122 25.1443H12.9691C13.3063 25.1443 13.6241 25.0117 13.8646 24.7712C14.105 24.5308 14.2376 24.213 14.2376 23.8758C14.2376 23.2946 13.8424 22.7881 13.2772 22.6449L11.9964 22.3272C11.6256 22.2335 11.2941 22.0169 11.062 21.7177C10.8305 21.4242 10.7018 21.0508 10.7018 20.6676C10.7018 19.7244 11.4691 18.9572 12.4122 18.9572H12.452V18.2942C12.452 18.1722 12.551 18.0732 12.673 18.0732C12.795 18.0732 12.894 18.1722 12.894 18.2942V18.9572H12.9691C13.8411 18.9572 14.5717 19.6113 14.6694 20.4793C14.6831 20.6004 14.5956 20.7096 14.4745 20.7237C14.3551 20.737 14.2442 20.6499 14.2301 20.5288C14.1576 19.8849 13.6157 19.3991 12.9691 19.3991H12.4122C11.7126 19.3991 11.1438 19.9684 11.1438 20.6676C11.1438 20.9518 11.2384 21.228 11.4099 21.4454C11.5831 21.6686 11.8293 21.8291 12.1038 21.8985L13.3846 22.2162C14.1474 22.4094 14.6795 23.0918 14.6795 23.8758Z" fill="black"/>
<path d="M25.5701 15.8875C25.5242 15.774 25.3951 15.72 25.2828 15.7651C24.8864 15.9247 24.4679 16.0055 24.0396 16.0055C22.5997 16.0055 21.3745 15.0809 20.9184 13.7957H23.5972C23.7192 13.7957 23.8182 13.6967 23.8182 13.5747C23.8182 13.4527 23.7192 13.3537 23.5972 13.3537H20.7911C20.7474 13.1394 20.7244 12.918 20.7244 12.6908C20.7244 12.4636 20.7474 12.2422 20.7911 12.0278H23.5972C23.7192 12.0278 23.8182 11.9288 23.8182 11.8069C23.8182 11.6849 23.7192 11.5859 23.5972 11.5859H20.918C21.3745 10.3006 22.5992 9.37605 24.0391 9.37605C24.4709 9.37605 24.8886 9.45825 25.2806 9.62001C25.3933 9.66642 25.5228 9.61339 25.5692 9.50024C25.6156 9.38754 25.5622 9.25807 25.4495 9.21166C25.0035 9.02736 24.5293 8.93408 24.0391 8.93408C22.3522 8.93408 20.9215 10.0523 20.4486 11.5859H19.1775C19.0555 11.5859 18.9565 11.6849 18.9565 11.8069C18.9565 11.9288 19.0555 12.0278 19.1775 12.0278H20.3448C20.3063 12.2435 20.2824 12.4641 20.2824 12.6908C20.2824 12.9175 20.3059 13.1381 20.3448 13.3537H19.1775C19.0555 13.3537 18.9565 13.4527 18.9565 13.5747C18.9565 13.6967 19.0555 13.7957 19.1775 13.7957H20.4486C20.9215 15.3293 22.3522 16.4475 24.0391 16.4475C24.5244 16.4475 24.9982 16.3556 25.4477 16.1753C25.5608 16.1297 25.6156 16.0007 25.5701 15.8875Z" fill="black"/>
</svg>
