<svg width="17" height="21" viewBox="0 0 17 21" fill="none" xmlns="http://www.w3.org/2000/svg">
<path fill-rule="evenodd" clip-rule="evenodd" d="M14.4062 14.182C14.4062 16.559 12.0325 18.9375 8.5 18.9375C4.96745 18.9375 2.59375 16.559 2.59375 14.182C2.59375 11.7163 4.19738 8.64577 6.08225 5.97269C6.93417 4.76452 7.78917 3.71211 8.45779 2.93467C9.13912 3.77286 10.0232 4.91385 10.9041 6.20153C11.8225 7.54413 12.7158 9.01484 13.3741 10.4462C14.0444 11.9038 14.4062 13.1836 14.4062 14.182ZM0.90625 14.182C0.90625 9.59464 5.23572 4.063 7.35653 1.6285C8.04446 0.838813 8.5 0.375 8.5 0.375C8.5 0.375 8.93642 0.857429 9.60001 1.66555C11.7045 4.2284 16.0938 10.0669 16.0938 14.182C16.0938 17.7404 12.6939 20.625 8.5 20.625C4.30609 20.625 0.90625 17.7404 0.90625 14.182ZM4.70172 11.3438H6.51712C6.17554 12.1233 5.96875 12.8626 5.96875 13.4916C5.96875 14.4573 6.91344 15.5625 8.5 15.5625V17.25C6.17005 17.25 4.28125 15.5673 4.28125 13.4916C4.28125 12.7989 4.44241 12.0693 4.70172 11.3438Z" fill="black" fill-opacity="0.6"/>
</svg>
