<svg width="84" height="38" viewBox="0 0 84 38" fill="none" xmlns="http://www.w3.org/2000/svg">
<rect width="84" height="38" rx="19" fill="black" fill-opacity="0.15"/>
<circle cx="63" cy="19" r="16" fill="white"/>
<path d="M63.5 24.1043C66.0428 24.1043 68.1041 22.043 68.1041 19.5002C68.1041 16.9574 66.0428 14.896 63.5 14.896C60.9572 14.896 58.8958 16.9574 58.8958 19.5002C58.8958 22.043 60.9572 24.1043 63.5 24.1043Z" stroke="black" stroke-width="1.5" stroke-linecap="round" stroke-linejoin="round"/>
<path d="M68.5575 24.5573L68.4654 24.4653M68.4654 14.5344L68.5575 14.4423L68.4654 14.5344ZM58.4425 24.5573L58.5346 24.4653L58.4425 24.5573ZM63.5 12.4732V12.4165V12.4732ZM63.5 26.5832V26.5265V26.5832ZM56.4734 19.4998H56.4167H56.4734ZM70.5834 19.4998H70.5267H70.5834ZM58.5346 14.5344L58.4425 14.4423L58.5346 14.5344Z" stroke="black" stroke-width="2" stroke-linecap="round" stroke-linejoin="round"/>
</svg>
