<svg width="69" height="69" viewBox="0 0 69 69" fill="none" xmlns="http://www.w3.org/2000/svg">
<rect width="69" height="69" rx="34.5" fill="white" fill-opacity="0.3"/>
<path d="M48.031 46.969L42.0174 40.9555C44.0214 38.7025 45.2514 35.746 45.2514 32.5C45.2514 25.4695 39.5319 19.75 32.5014 19.75C25.4709 19.75 19.7514 25.4695 19.7514 32.5C19.7514 39.5305 25.4709 45.25 32.5014 45.25C35.7474 45.25 38.704 44.02 40.957 42.016L46.9704 48.0295C47.1174 48.1765 47.3094 48.2485 47.5014 48.2485C47.6934 48.2485 47.8854 48.175 48.0324 48.0295C48.3234 47.737 48.3235 47.263 48.031 46.969ZM21.25 32.5C21.25 26.2975 26.296 21.25 32.5 21.25C38.704 21.25 43.75 26.2975 43.75 32.5C43.75 38.7025 38.704 43.75 32.5 43.75C26.296 43.75 21.25 38.7025 21.25 32.5Z" fill="black"/>
</svg>
