<svg width="26" height="26" viewBox="0 0 26 26" fill="none" xmlns="http://www.w3.org/2000/svg">
<path d="M2.70801 6.50016C2.70801 6.20116 2.95067 5.9585 3.24967 5.9585H22.7497C23.0487 5.9585 23.2913 6.20116 23.2913 6.50016C23.2913 6.79916 23.0487 7.04183 22.7497 7.04183H3.24967C2.95067 7.04183 2.70801 6.79916 2.70801 6.50016ZM22.7497 12.4585H3.24967C2.95067 12.4585 2.70801 12.7012 2.70801 13.0002C2.70801 13.2992 2.95067 13.5418 3.24967 13.5418H22.7497C23.0487 13.5418 23.2913 13.2992 23.2913 13.0002C23.2913 12.7012 23.0487 12.4585 22.7497 12.4585ZM22.7497 18.9585H3.24967C2.95067 18.9585 2.70801 19.2012 2.70801 19.5002C2.70801 19.7992 2.95067 20.0418 3.24967 20.0418H22.7497C23.0487 20.0418 23.2913 19.7992 23.2913 19.5002C23.2913 19.2012 23.0487 18.9585 22.7497 18.9585Z" fill="black"/>
</svg>
