<svg width="26" height="26" viewBox="0 0 26 26" fill="none" xmlns="http://www.w3.org/2000/svg">
<path d="M23.1331 22.3667L18.79 18.0236C20.2373 16.3964 21.1257 14.2612 21.1257 11.9168C21.1257 6.83925 16.9949 2.7085 11.9173 2.7085C6.83973 2.7085 2.70898 6.83925 2.70898 11.9168C2.70898 16.9944 6.83973 21.1252 11.9173 21.1252C14.2617 21.1252 16.3969 20.2368 18.0241 18.7895L22.3671 23.1326C22.4733 23.2387 22.612 23.2907 22.7507 23.2907C22.8893 23.2907 23.028 23.2377 23.1342 23.1326C23.3443 22.9213 23.3443 22.579 23.1331 22.3667ZM3.79126 11.9168C3.79126 7.43725 7.43559 3.79183 11.9163 3.79183C16.3969 3.79183 20.0413 7.43725 20.0413 11.9168C20.0413 16.3964 16.3969 20.0418 11.9163 20.0418C7.43559 20.0418 3.79126 16.3964 3.79126 11.9168Z" fill="black"/>
</svg>
