<svg width="195" height="195" viewBox="0 0 195 195" fill="none" xmlns="http://www.w3.org/2000/svg">
<path fill-rule="evenodd" clip-rule="evenodd" d="M91.4062 30.4688V12.1875H103.594V30.4688H91.4062ZM125.739 36.4029L134.879 20.5709L145.434 26.6646L136.293 42.4966L125.739 36.4029ZM97.5 140.156C121.058 140.156 140.156 121.058 140.156 97.5C140.156 73.9416 121.058 54.8438 97.5 54.8438C73.9416 54.8438 54.8438 73.9416 54.8438 97.5C54.8438 121.058 73.9416 140.156 97.5 140.156ZM97.5 152.344C127.789 152.344 152.344 127.789 152.344 97.5C152.344 67.2106 127.789 42.6562 97.5 42.6562C67.2106 42.6562 42.6562 67.2106 42.6562 97.5C42.6562 127.789 67.2106 152.344 97.5 152.344ZM164.531 91.4062H182.812V103.594H164.531V91.4062ZM168.336 49.5664L152.504 58.707L158.597 69.2617L174.43 60.1211L168.336 49.5664ZM49.5664 26.6646L58.707 42.4966L69.2617 36.4029L60.1211 20.5709L49.5664 26.6646ZM36.4025 69.2617L20.5705 60.1211L26.6642 49.5664L42.4963 58.707L36.4025 69.2617ZM91.4062 164.531V182.812H103.594V164.531H91.4062ZM30.4688 91.4062H12.1875V103.594H30.4688V91.4062ZM20.5702 134.879L36.4022 125.738L42.4959 136.293L26.6639 145.434L20.5702 134.879ZM58.7074 152.504L49.5668 168.336L60.1215 174.43L69.2621 158.598L58.7074 152.504ZM134.879 174.43L125.738 158.598L136.293 152.504L145.434 168.336L134.879 174.43ZM152.504 136.293L168.336 145.434L174.43 134.879L158.598 125.738L152.504 136.293Z" fill="url(#paint0_linear_63_3528)"/>
<defs>
<linearGradient id="paint0_linear_63_3528" x1="97.5" y1="12.1875" x2="97.5" y2="182.812" gradientUnits="userSpaceOnUse">
<stop stop-color="#EFC977"/>
<stop offset="1" stop-color="#E07256"/>
</linearGradient>
</defs>
</svg>
