<svg width="287" height="272" viewBox="0 0 287 272" fill="none" xmlns="http://www.w3.org/2000/svg">
<path d="M43.744 132.572C43.744 131.196 43.968 130.124 44.416 129.356C44.864 128.58 45.648 128.192 46.768 128.192C47.88 128.192 48.66 128.58 49.108 129.356C49.556 130.124 49.78 131.196 49.78 132.572C49.78 133.972 49.556 135.06 49.108 135.836C48.66 136.612 47.88 137 46.768 137C45.648 137 44.864 136.612 44.416 135.836C43.968 135.06 43.744 133.972 43.744 132.572ZM48.7 132.572C48.7 131.876 48.652 131.288 48.556 130.808C48.468 130.32 48.28 129.928 47.992 129.632C47.712 129.336 47.304 129.188 46.768 129.188C46.224 129.188 45.808 129.336 45.52 129.632C45.24 129.928 45.052 130.32 44.956 130.808C44.868 131.288 44.824 131.876 44.824 132.572C44.824 133.292 44.868 133.896 44.956 134.384C45.052 134.872 45.24 135.264 45.52 135.56C45.808 135.856 46.224 136.004 46.768 136.004C47.304 136.004 47.712 135.856 47.992 135.56C48.28 135.264 48.468 134.872 48.556 134.384C48.652 133.896 48.7 133.292 48.7 132.572Z" fill="black" fill-opacity="0.4"/>
<path d="M59.612 82.124C60.628 81.308 61.424 80.64 62 80.12C62.576 79.592 63.06 79.044 63.452 78.476C63.852 77.9 64.052 77.336 64.052 76.784C64.052 76.264 63.924 75.856 63.668 75.56C63.42 75.256 63.016 75.104 62.456 75.104C61.912 75.104 61.488 75.276 61.184 75.62C60.888 75.956 60.728 76.408 60.704 76.976H59.648C59.68 76.08 59.952 75.388 60.464 74.9C60.976 74.412 61.636 74.168 62.444 74.168C63.268 74.168 63.92 74.396 64.4 74.852C64.888 75.308 65.132 75.936 65.132 76.736C65.132 77.4 64.932 78.048 64.532 78.68C64.14 79.304 63.692 79.856 63.188 80.336C62.684 80.808 62.04 81.36 61.256 81.992H65.384V82.904H59.612V82.124Z" fill="black" fill-opacity="0.4"/>
<path d="M94.48 47.068V46.24L98.692 40.408H100V46.12H101.2V47.068H100V49H98.92V47.068H94.48ZM98.968 41.548L95.74 46.12H98.968V41.548Z" fill="black" fill-opacity="0.4"/>
<path d="M154.58 29.388C154.404 28.5 153.856 28.056 152.936 28.056C152.224 28.056 151.692 28.332 151.34 28.884C150.988 29.428 150.816 30.328 150.824 31.584C151.008 31.168 151.312 30.844 151.736 30.612C152.168 30.372 152.648 30.252 153.176 30.252C154 30.252 154.656 30.508 155.144 31.02C155.64 31.532 155.888 32.24 155.888 33.144C155.888 33.688 155.78 34.176 155.564 34.608C155.356 35.04 155.036 35.384 154.604 35.64C154.18 35.896 153.664 36.024 153.056 36.024C152.232 36.024 151.588 35.84 151.124 35.472C150.66 35.104 150.336 34.596 150.152 33.948C149.968 33.3 149.876 32.5 149.876 31.548C149.876 28.612 150.9 27.144 152.948 27.144C153.732 27.144 154.348 27.356 154.796 27.78C155.244 28.204 155.508 28.74 155.588 29.388H154.58ZM152.948 31.176C152.604 31.176 152.28 31.248 151.976 31.392C151.672 31.528 151.424 31.74 151.232 32.028C151.048 32.308 150.956 32.652 150.956 33.06C150.956 33.668 151.132 34.164 151.484 34.548C151.836 34.924 152.34 35.112 152.996 35.112C153.556 35.112 154 34.94 154.328 34.596C154.664 34.244 154.832 33.772 154.832 33.18C154.832 32.556 154.672 32.068 154.352 31.716C154.032 31.356 153.564 31.176 152.948 31.176Z" fill="black" fill-opacity="0.4"/>
<path d="M204.328 44.488C203.88 44.312 203.536 44.056 203.296 43.72C203.056 43.384 202.936 42.976 202.936 42.496C202.936 42.064 203.044 41.676 203.26 41.332C203.476 40.98 203.796 40.704 204.22 40.504C204.652 40.296 205.172 40.192 205.78 40.192C206.388 40.192 206.904 40.296 207.328 40.504C207.76 40.704 208.084 40.98 208.3 41.332C208.524 41.676 208.636 42.064 208.636 42.496C208.636 42.96 208.512 43.368 208.264 43.72C208.016 44.064 207.676 44.32 207.244 44.488C207.74 44.64 208.132 44.908 208.42 45.292C208.716 45.668 208.864 46.124 208.864 46.66C208.864 47.18 208.736 47.636 208.48 48.028C208.224 48.412 207.86 48.712 207.388 48.928C206.924 49.136 206.388 49.24 205.78 49.24C205.172 49.24 204.636 49.136 204.172 48.928C203.716 48.712 203.36 48.412 203.104 48.028C202.848 47.636 202.72 47.18 202.72 46.66C202.72 46.124 202.864 45.664 203.152 45.28C203.44 44.896 203.832 44.632 204.328 44.488ZM207.58 42.628C207.58 42.14 207.42 41.764 207.1 41.5C206.78 41.236 206.34 41.104 205.78 41.104C205.228 41.104 204.792 41.236 204.472 41.5C204.152 41.764 203.992 42.144 203.992 42.64C203.992 43.088 204.156 43.448 204.484 43.72C204.82 43.992 205.252 44.128 205.78 44.128C206.316 44.128 206.748 43.992 207.076 43.72C207.412 43.44 207.58 43.076 207.58 42.628ZM205.78 44.968C205.188 44.968 204.704 45.108 204.328 45.388C203.952 45.66 203.764 46.072 203.764 46.624C203.764 47.136 203.944 47.548 204.304 47.86C204.672 48.172 205.164 48.328 205.78 48.328C206.396 48.328 206.884 48.172 207.244 47.86C207.604 47.548 207.784 47.136 207.784 46.624C207.784 46.088 207.6 45.68 207.232 45.4C206.864 45.112 206.38 44.968 205.78 44.968Z" fill="black" fill-opacity="0.4"/>
<path d="M236.456 75.32V74.324H238.712V83H237.608V75.32H236.456ZM240.948 78.572C240.948 77.196 241.172 76.124 241.62 75.356C242.068 74.58 242.852 74.192 243.972 74.192C245.084 74.192 245.864 74.58 246.312 75.356C246.76 76.124 246.984 77.196 246.984 78.572C246.984 79.972 246.76 81.06 246.312 81.836C245.864 82.612 245.084 83 243.972 83C242.852 83 242.068 82.612 241.62 81.836C241.172 81.06 240.948 79.972 240.948 78.572ZM245.904 78.572C245.904 77.876 245.856 77.288 245.76 76.808C245.672 76.32 245.484 75.928 245.196 75.632C244.916 75.336 244.508 75.188 243.972 75.188C243.428 75.188 243.012 75.336 242.724 75.632C242.444 75.928 242.256 76.32 242.16 76.808C242.072 77.288 242.028 77.876 242.028 78.572C242.028 79.292 242.072 79.896 242.16 80.384C242.256 80.872 242.444 81.264 242.724 81.56C243.012 81.856 243.428 82.004 243.972 82.004C244.508 82.004 244.916 81.856 245.196 81.56C245.484 81.264 245.672 80.872 245.76 80.384C245.856 79.896 245.904 79.292 245.904 78.572Z" fill="black" fill-opacity="0.4"/>
<path d="M252.456 130.32V129.324H254.712V138H253.608V130.32H252.456ZM256.816 137.124C257.832 136.308 258.628 135.64 259.204 135.12C259.78 134.592 260.264 134.044 260.656 133.476C261.056 132.9 261.256 132.336 261.256 131.784C261.256 131.264 261.128 130.856 260.872 130.56C260.624 130.256 260.22 130.104 259.66 130.104C259.116 130.104 258.692 130.276 258.388 130.62C258.092 130.956 257.932 131.408 257.908 131.976H256.852C256.884 131.08 257.156 130.388 257.668 129.9C258.18 129.412 258.84 129.168 259.648 129.168C260.472 129.168 261.124 129.396 261.604 129.852C262.092 130.308 262.336 130.936 262.336 131.736C262.336 132.4 262.136 133.048 261.736 133.68C261.344 134.304 260.896 134.856 260.392 135.336C259.888 135.808 259.244 136.36 258.46 136.992H262.588V137.904H256.816V137.124Z" fill="black" fill-opacity="0.4"/>
<mask id="path-8-inside-1_63_3608" fill="white">
<path d="M287 138C287 102.461 272.882 68.3776 247.752 43.2477C222.622 18.1178 188.539 4 153 4C117.461 4 83.3776 18.1178 58.2477 43.2477C33.1178 68.3775 19 102.461 19 138H35.669C35.669 106.882 48.0306 77.0382 70.0344 55.0344C92.0383 33.0306 121.882 20.669 153 20.669C184.118 20.669 213.962 33.0306 235.966 55.0344C257.969 77.0383 270.331 106.882 270.331 138H287Z"/>
</mask>
<path d="M287 138C287 102.461 272.882 68.3776 247.752 43.2477C222.622 18.1178 188.539 4 153 4C117.461 4 83.3776 18.1178 58.2477 43.2477C33.1178 68.3775 19 102.461 19 138H35.669C35.669 106.882 48.0306 77.0382 70.0344 55.0344C92.0383 33.0306 121.882 20.669 153 20.669C184.118 20.669 213.962 33.0306 235.966 55.0344C257.969 77.0383 270.331 106.882 270.331 138H287Z" stroke="black" stroke-opacity="0.24" stroke-width="80" mask="url(#path-8-inside-1_63_3608)"/>
<mask id="path-9-inside-2_63_3608" fill="white">
<path d="M280 138C280 104.052 266.62 71.495 242.803 47.4903C218.985 23.4857 186.682 10 153 10C119.318 10 87.0146 23.4857 63.1974 47.4903C39.3803 71.495 26 104.052 26 138L27.8774 138C27.8774 104.554 41.0599 72.4781 64.525 48.8283C87.99 25.1785 119.815 11.8922 153 11.8922C186.185 11.8922 218.01 25.1785 241.475 48.8283C264.94 72.4781 278.123 104.554 278.123 138H280Z"/>
</mask>
<path d="M280 138C280 104.052 266.62 71.495 242.803 47.4903C218.985 23.4857 186.682 10 153 10C119.318 10 87.0146 23.4857 63.1974 47.4903C39.3803 71.495 26 104.052 26 138L27.8774 138C27.8774 104.554 41.0599 72.4781 64.525 48.8283C87.99 25.1785 119.815 11.8922 153 11.8922C186.185 11.8922 218.01 25.1785 241.475 48.8283C264.94 72.4781 278.123 104.554 278.123 138H280Z" stroke="white" stroke-width="60" mask="url(#path-9-inside-2_63_3608)"/>
<path d="M52.7092 138H0C0 50.9693 59.9044 9.73723 89.8566 0L114.763 47.5C60.9492 68.4518 54.7171 112.818 52.7092 138Z" fill="url(#paint0_linear_63_3608)"/>
<defs>
<linearGradient id="paint0_linear_63_3608" x1="63" y1="0" x2="63" y2="138" gradientUnits="userSpaceOnUse">
<stop stop-color="#31FDFF"/>
<stop offset="0.828125" stop-color="#1A4D81" stop-opacity="0.42"/>
</linearGradient>
</defs>
</svg>
