<svg width="103" height="107" viewBox="0 0 103 107" fill="none" xmlns="http://www.w3.org/2000/svg">
<path d="M23.1074 101.607C34.4293 101.607 43.6074 92.4293 43.6074 81.1074C43.6074 69.7856 34.4293 60.6074 23.1074 60.6074C11.7856 60.6074 2.60742 69.7856 2.60742 81.1074C2.60742 92.4293 11.7856 101.607 23.1074 101.607Z" fill="#FFD983"/>
<path d="M22.6074 100.107C33.377 100.107 42.1074 91.377 42.1074 80.6074C42.1074 69.8379 33.377 61.1074 22.6074 61.1074C11.8379 61.1074 3.10742 69.8379 3.10742 80.6074C3.10742 91.377 11.8379 100.107 22.6074 100.107Z" stroke="#2E386B" stroke-width="3"/>
<mask id="mask0_954_4677" style="mask-type:luminance" maskUnits="userSpaceOnUse" x="17" y="58" width="32" height="47">
<path d="M20.1575 99.5813C19.9611 100.314 20.3955 101.073 21.1401 101.22C23.3252 101.651 25.5691 101.723 27.7834 101.432C30.4525 101.08 33.0262 100.207 35.3576 98.8607C37.6891 97.5146 39.7325 95.7225 41.3714 93.5867C43.0102 91.451 44.2123 89.0133 44.9091 86.4129C45.6059 83.8126 45.7836 81.1004 45.4322 78.4314C45.0809 75.7623 44.2072 73.1886 42.8611 70.8571C41.5151 68.5257 39.723 66.4822 37.5872 64.8434C35.8154 63.4838 33.8357 62.4248 31.7278 61.7055C31.0096 61.4604 30.2542 61.8999 30.0578 62.6329C29.8614 63.366 30.2987 64.1143 31.0143 64.3668C32.7747 64.988 34.4288 65.8838 35.9142 67.0237C37.7637 68.4428 39.3155 70.2124 40.4811 72.2312C41.6467 74.2501 42.4033 76.4788 42.7076 78.7901C43.0118 81.1013 42.8579 83.4499 42.2546 85.7016C41.6512 87.9534 40.6102 90.0643 39.1911 91.9138C37.7719 93.7632 36.0024 95.3151 33.9835 96.4807C31.9647 97.6463 29.736 98.4028 27.4247 98.7071C25.5683 98.9515 23.6879 98.9003 21.8528 98.558C21.1068 98.4189 20.3539 98.8483 20.1575 99.5813Z" stroke="#DEE5FF" stroke-width="6"/>
</mask>
<g mask="url(#mask0_954_4677)">
<path d="M20.1575 99.5813C19.9611 100.314 20.3955 101.073 21.1401 101.22C23.3252 101.651 25.5691 101.723 27.7834 101.432C30.4525 101.08 33.0262 100.207 35.3576 98.8607C37.6891 97.5146 39.7325 95.7225 41.3714 93.5867C43.0102 91.451 44.2123 89.0133 44.9091 86.4129C45.6059 83.8126 45.7836 81.1004 45.4322 78.4314C45.0809 75.7623 44.2072 73.1886 42.8611 70.8571C41.5151 68.5257 39.723 66.4822 37.5872 64.8434C35.8154 63.4838 33.8357 62.4248 31.7278 61.7055C31.0096 61.4604 30.2542 61.8999 30.0578 62.6329C29.8614 63.366 30.2987 64.1143 31.0143 64.3668C32.7747 64.988 34.4288 65.8838 35.9142 67.0237C37.7637 68.4428 39.3155 70.2124 40.4811 72.2312C41.6467 74.2501 42.4033 76.4788 42.7076 78.7901C43.0118 81.1013 42.8579 83.4499 42.2546 85.7016C41.6512 87.9534 40.6102 90.0643 39.1911 91.9138C37.7719 93.7632 36.0024 95.3151 33.9835 96.4807C31.9647 97.6463 29.736 98.4028 27.4247 98.7071C25.5683 98.9515 23.6879 98.9003 21.8528 98.558C21.1068 98.4189 20.3539 98.8483 20.1575 99.5813Z" stroke="#2E386B" stroke-width="3"/>
</g>
<path d="M68.9062 11.2883L67.8772 12.3797L67.903 12.4041L67.93 12.4272L68.9062 11.2883ZM71.9062 40.7884L73.2849 41.3792L73.3009 41.3419L73.3149 41.3037L71.9062 40.7884ZM61.5275 61.1975C61.2012 61.9589 61.5539 62.8407 62.3153 63.1671C63.0768 63.4934 63.9586 63.1407 64.2849 62.3792L61.5275 61.1975ZM42.3905 70.4378C40.1045 64.7815 37.4001 59.0081 34.9196 53.425C32.4251 47.8103 30.1451 42.3636 28.6316 37.2323C25.5926 26.9286 25.7827 18.4346 32.8751 12.4334L30.9373 10.1432C22.4296 17.342 22.6198 27.4538 25.7542 38.0809C27.3274 43.415 29.6775 49.015 32.178 54.6431C34.6926 60.3027 37.3484 65.9683 39.6091 71.562L42.3905 70.4378ZM32.8751 12.4334C40.3376 6.11893 47.6945 4.85811 53.8513 5.75996C60.0745 6.67155 65.1504 9.80868 67.8772 12.3797L69.9352 10.1969C66.8287 7.26792 61.2045 3.80506 54.2861 2.79164C47.3012 1.7685 39.0747 3.25768 30.9373 10.1432L32.8751 12.4334ZM67.93 12.4272C70.8757 14.9521 76.3207 24.3562 70.4975 40.273L73.3149 41.3037C79.4917 24.4205 73.9367 13.6246 69.8824 10.1494L67.93 12.4272ZM70.5275 40.1975L61.5275 61.1975L64.2849 62.3792L73.2849 41.3792L70.5275 40.1975Z" fill="#2E386B"/>
<path d="M59.4248 62.3429C63.0497 57.2649 68 45.5 70.5 40.5H73.5C71 49 67.6369 60.3117 64.9554 64.8818C61.0393 69.9598 57.8116 64.6026 59.4248 62.3429Z" fill="#2E386B"/>
<path d="M63 77C63.8333 84 69 97.7 83 96.5C97 95.3 101.167 83 101.5 77" stroke="#2E386B" stroke-width="3" stroke-linecap="round"/>
<path d="M82.9997 97.9999C69.9997 98.4999 63.9997 95.0238 61.7734 78.2886L62.7975 79.2807C68.4621 97.47 78.2346 98.331 82.9997 95.9999V97.9999Z" fill="#2E386B"/>
<path d="M53.4337 3.5953C54.2603 3.65041 54.975 3.02499 55.0301 2.1984C55.0852 1.37181 54.4598 0.657046 53.6332 0.60194L53.4337 3.5953ZM26.9762 29.7318C26.0391 24.5779 26.9954 17.6343 30.9761 12.2121C34.8923 6.87752 41.8769 2.82485 53.4337 3.5953L53.6332 0.60194C41.19 -0.227611 33.158 4.17044 28.5578 10.4367C24.0219 16.6152 22.9617 24.4223 24.0246 30.2684L26.9762 29.7318Z" fill="#2E386B"/>
<path d="M55.5 2.5C55.5 0.5 54.5 0.5 51.5 0.5L52.5 5.5C53.5 5.5 55.5 4.09963 55.5 2.5Z" fill="#2E386B"/>
</svg>
