<svg width="102" height="97" viewBox="0 0 102 97" fill="none" xmlns="http://www.w3.org/2000/svg">
<g clip-path="url(#clip0_954_4668)">
<path d="M78.5 61C90.9264 61 101 50.9264 101 38.5C101 26.0736 90.9264 16 78.5 16C66.0736 16 56 26.0736 56 38.5C56 50.9264 66.0736 61 78.5 61Z" fill="#80AEFF"/>
<path d="M91.0003 55.3803L91.8166 56.6388L91.8565 56.6129L91.8948 56.5845L91.0003 55.3803ZM61.0003 51.3803L62.2183 50.5049L62.1472 50.4059L62.061 50.3197L61.0003 51.3803ZM64.7003 23.2803C65.1974 22.6176 65.063 21.6774 64.4003 21.1803C63.7376 20.6833 62.7974 20.8176 62.3003 21.4803L64.7003 23.2803ZM3.87855 20.5963C12.7169 14.213 27.8747 6.68787 44.5109 4.89666C61.0841 3.11223 79.0726 7.01171 93.888 23.3867L96.1126 21.3739C80.528 4.14885 61.5165 0.0483311 44.1897 1.9139C26.9259 3.77269 11.2837 11.5476 2.12207 18.1643L3.87855 20.5963ZM93.888 23.3867C96.3419 26.0989 98.7187 31.3908 98.7861 37.2476C98.8526 43.0193 96.6798 49.2927 90.1058 54.1762L91.8948 56.5845C99.3208 51.068 101.862 43.8414 101.786 37.2131C101.71 30.6699 99.0873 24.6618 96.1126 21.3739L93.888 23.3867ZM90.184 54.1219C83.1361 58.6935 77.0466 58.9455 72.3142 57.5422C67.511 56.1179 63.9726 52.9457 62.2183 50.5049L59.7823 52.2558C61.8613 55.1483 65.923 58.7761 71.4614 60.4185C77.0707 62.0818 84.0645 61.6672 91.8166 56.6388L90.184 54.1219ZM62.061 50.3197C58.9547 47.2134 54.32 37.1207 64.7003 23.2803L62.3003 21.4803C51.0806 36.4399 55.7126 48.2139 59.9396 52.441L62.061 50.3197Z" fill="#2E386B"/>
<path d="M97.6883 25.7285C98.0906 26.4527 99.0039 26.7136 99.7281 26.3113C100.453 25.909 100.714 24.9958 100.311 24.2716L97.6883 25.7285ZM30.0303 7.90289C39.0583 4.48701 52.4182 2.40148 65.3234 4.48097C78.1987 6.55566 90.4731 12.7412 97.6883 25.7285L100.311 24.2716C92.5259 10.2589 79.3004 3.69446 65.8007 1.51917C52.3309 -0.651315 38.4408 1.51313 28.9688 5.09702L30.0303 7.90289Z" fill="#2E386B"/>
<path d="M63.701 52.4999L62.0004 54.5C56.0004 49.5 53.485 40.0769 54.5004 35C55.5004 30 58.0344 22.1491 60.7011 19.3158C65.7011 16.3158 67.7011 20.8158 65.7011 22.8158L63.7011 24.8158C62.0005 26.9999 61.0005 29.4999 60.5005 30.4999C55.7005 42.0999 60.5005 49.9999 63.701 52.4999Z" fill="#2E386B"/>
<path d="M23.5 36C11.0736 36 1 46.0736 1 58.5C1 70.9264 11.0736 81 23.5 81C35.9264 81 46 70.9264 46 58.5C46 46.0736 35.9264 36 23.5 36Z" fill="#80AEFF"/>
<path d="M11.0002 41.6199L10.1839 40.3615L10.144 40.3874L10.1057 40.4158L11.0002 41.6199ZM41.0002 45.6199L39.7822 46.4954L39.8533 46.5944L39.9395 46.6806L41.0002 45.6199ZM37.3002 73.72C36.8031 74.3827 36.9375 75.3229 37.6002 75.82C38.2629 76.317 39.2031 76.1827 39.7002 75.52L37.3002 73.72ZM98.122 76.404C89.2836 82.7873 74.1258 90.3124 57.4896 92.1036C40.9164 93.888 22.9279 89.9886 8.11249 73.6136L5.88788 75.6264C21.4725 92.8514 40.484 96.9519 57.8108 95.0864C75.0746 93.2276 90.7168 85.4527 99.8784 78.836L98.122 76.404ZM8.11249 73.6136C5.65859 70.9014 3.28183 65.6095 3.21436 59.7527C3.14787 53.981 5.32068 47.7076 11.8947 42.8241L10.1057 40.4158C2.67969 45.9323 0.138197 53.1589 0.214554 59.7872C0.289931 66.3304 2.91317 72.3385 5.88788 75.6264L8.11249 73.6136ZM11.8165 42.8784C18.8644 38.3068 24.9539 38.0547 29.6863 39.458C34.4895 40.8824 38.0279 44.0546 39.7822 46.4954L42.2182 44.7445C40.1392 41.8519 36.0775 38.2242 30.5392 36.5818C24.9298 34.9185 17.936 35.3331 10.1839 40.3615L11.8165 42.8784ZM39.9395 46.6806C43.0458 49.7869 47.6805 59.8796 37.3002 73.72L39.7002 75.52C50.9199 60.5604 46.2879 48.7864 42.0609 44.5593L39.9395 46.6806Z" fill="#2E386B"/>
<path d="M4.31151 71.2713C3.90919 70.5471 2.99599 70.2862 2.27181 70.6885C1.54763 71.0908 1.28672 72.004 1.68904 72.7282L4.31151 71.2713ZM71.9695 89.0969C62.9415 92.5128 49.5816 94.5983 36.6764 92.5188C23.8011 90.4441 11.5267 84.2586 4.31151 71.2713L1.68904 72.7282C9.47387 86.7409 22.6995 93.3053 36.1992 95.4806C49.669 97.6511 63.5591 95.4867 73.0311 91.9028L71.9695 89.0969Z" fill="#2E386B"/>
<path d="M38.2997 44.5001L40.0003 42.5C46.0003 47.5 48.5157 56.9231 47.5003 62C46.5003 67 43.9663 74.8509 41.2996 77.6842C36.2996 80.6842 34.2996 76.1842 36.2996 74.1842L38.2996 72.1842C40.0002 70.0001 41.0002 67.5001 41.5002 66.5001C46.3002 54.9001 41.5002 47.0001 38.2997 44.5001Z" fill="#2E386B"/>
</g>
<defs>
<clipPath id="clip0_954_4668">
<rect width="102" height="97" fill="white"/>
</clipPath>
</defs>
</svg>
